# xmcd
#
# Track frame offsets: 
#        150
#        12014
#        25083
#        53396
#        70332
#        81111
#        94339
#        108765
#        121519
#        134852
#        148596
#        162642
#        178861
#        192987
#        205258
#        219917
#        233226
#        248654
#        260693
#        275540
#        287966
#        303236
#        314521
#        329613
#        344787
#
# Disc length: 4755 seconds
#
# Revision: 2
# Processed by: cddbd v1.5.2PL0 Copyright (c) Steve Scherf et al.
# Submitted via: ExactAudioCopyFreeDBPlugin 1.0
#
DISCID=7c129119
DTITLE=Various Artist - Dave Godin's Deep Soul Treasures:  Taken from
DTITLE=Our Vaults
DYEAR=1999
DGENRE=Soul
TTITLE0=Doris Duke - How Was I to Know You Cared
TTITLE1=Eddie Holman - I'm Not Gonna Give Up
TTITLE2=The Soul Children - The Sweeter He Is, Parts 1 and 2
TTITLE3=Tony Owens - I Don't Want Nobody But My Baby
TTITLE4=Bob Moore - It Was a Lie
TTITLE5=Jimmy and Lousie Tig and Company - A Love That Never Grows Cold
TTITLE6=Ben E. King - It's All Over
TTITLE7=Nat Phillips - I'm Sorry I Hurt You
TTITLE8=Wendy Rene - What Will Tomorrow Bring?
TTITLE9=Arthur Conley - Let Nothing Separate Us
TTITLE10=Irma Thomas - These Four Walls
TTITLE11=Johnny Adams - If I Could See You One More Time
TTITLE12=Ruby Johnson - I'll Run Your Hurt Away
TTITLE13=The Premiers - Make It Me
TTITLE14=Eddy "G" Giles - Losin' Boy
TTITLE15=Doris Allen - A Shell of a Woman
TTITLE16=Otis Redding - Just One More Day
TTITLE17=Bessie Banks - Go Now
TTITLE18=George Perkins and The Silver Stars - Cryin' in the Streets (Pa
TTITLE18=rt 1)
TTITLE19=Big John Hamilton - How Much Can a Man Take?
TTITLE20=Barbara West - Anyone But You
TTITLE21=Carla Thomas - Stop! Look What You're Doing
TTITLE22=Toussaint McCall - Nothing Takes the Place of You
TTITLE23=Eddie and Ernie - Hiding in Shadows
TTITLE24=Lisa Richards - Let's Take a Chance
EXTD=
EXTT0=
EXTT1=
EXTT2=
EXTT3=
EXTT4=
EXTT5=
EXTT6=
EXTT7=
EXTT8=
EXTT9=
EXTT10=
EXTT11=
EXTT12=
EXTT13=
EXTT14=
EXTT15=
EXTT16=
EXTT17=
EXTT18=
EXTT19=
EXTT20=
EXTT21=
EXTT22=
EXTT23=
EXTT24=
PLAYORDER=
